<?xml version="1.0" ?><svg xmlns="http://www.w3.org/2000/svg" xmlns:xlink="http://www.w3.org/1999/xlink" version="1.1" viewBox="0 0 512 512" style="enable-background:new 0 0 512 512;" xml:space="preserve" fill="#387bd8"><g id="_x32_2_x2C__x2C__folder_x2C__document_x2C__archive_x2C__storage_x2C__network_x2C__files_and_folders"><g id="XMLID_281_"><g id="XMLID_17_"><path id="XMLID_283_" d="M501,371c5.522,0,10-4.478,10-10V111c0-5.522-4.478-10-10-10h-10V31c0-5.522-4.478-10-10-10H107.181     L99.944,6.528C98.25,3.14,94.788,1,91,1H31c-5.522,0-10,4.478-10,10v90H11c-5.522,0-10,4.478-10,10v250c0,5.522,4.478,10,10,10     h235v20H41c-5.522,0-10,4.478-10,10v31.266C13.767,436.718,1,452.396,1,471c0,22.056,17.944,40,40,40s40-17.944,40-40     c0-18.604-12.767-34.282-30-38.734V411h195v21.266c-17.233,4.452-30,20.13-30,38.734c0,22.056,17.944,40,40,40s40-17.944,40-40     c0-18.604-12.767-34.282-30-38.734V411h195v21.266c-17.233,4.452-30,20.13-30,38.734c0,22.056,17.944,40,40,40s40-17.944,40-40     c0-18.604-12.767-34.282-30-38.734V401c0-5.522-4.478-10-10-10H266v-20H501z M41,21h43.819l7.236,14.472     C93.75,38.86,97.212,41,101,41h370v60h-20V71c0-5.522-4.478-10-10-10H71c-5.522,0-10,4.478-10,10v30H41V21z M21,121     c20.65,0,458.993,0,470,0v230H21V121z"/></g></g></g><g id="Layer_1"/></svg>