<?xml version="1.0" ?><svg viewBox="0 0 88 88" xmlns="http://www.w3.org/2000/svg"><title/><g id="G.Design"><path d="M50,85H46V77H32v8H28a1,1,0,0,0,0,2H50a1,1,0,0,0,0-2Z"/><path d="M2,68a7.0077,7.0077,0,0,0,7,7H62V67H2Zm34,2h6a1,1,0,0,1,0,2H36a1,1,0,0,1,0-2Z"/><path d="M32.94,39l-.89,2.68a.995.995,0,0,0,.14.9A.9826.9826,0,0,0,33,43H45a.9826.9826,0,0,0,.81-.42.995.995,0,0,0,.14-.9L45.06,39Z"/><path d="M75,69a1.0013,1.0013,0,0,0,1-1V66a1,1,0,0,0-2,0v2A1.0013,1.0013,0,0,0,75,69Z"/><path d="M78,55H76v8.1843A2.995,2.995,0,0,1,78,66h8V63A8.0092,8.0092,0,0,0,78,55Z"/><path d="M76,70.8157V73a1,1,0,0,1-2,0V70.8157A2.995,2.995,0,0,1,72,68H64v8a11,11,0,0,0,22,0V68H78A2.995,2.995,0,0,1,76,70.8157Z"/><rect height="6" rx="1" ry="1" width="16" x="31" y="31"/><circle cx="39" cy="23" r="1"/><path d="M19,7a2.995,2.995,0,0,0,2.8157-2h7.1129a14.9276,14.9276,0,0,0-6.6413,8H21a1,1,0,0,0-1,1v4a1,1,0,0,0,1,1h4a1,1,0,0,0,1-1V14a1,1,0,0,0-1-1h-.5739A12.9226,12.9226,0,0,1,36,5.0177V6a1,1,0,0,0,1,1h4a1,1,0,0,0,1-1V5.0177A12.9226,12.9226,0,0,1,53.5739,13H53a1,1,0,0,0-1,1v4a1,1,0,0,0,1,1h4a1,1,0,0,0,1-1V14a1,1,0,0,0-1-1H55.7127a14.9276,14.9276,0,0,0-6.6413-8h7.1129a3,3,0,1,0,0-2H42V2a1,1,0,0,0-1-1H37a1,1,0,0,0-1,1V3H21.8157A2.9947,2.9947,0,1,0,19,7Z"/><path d="M47.88,24.53,40,9.755V20.1843a3,3,0,1,1-2,0V9.755L30.12,24.53a.9969.9969,0,0,0,.07,1.05L32.63,29H45.37l2.44-3.42A.9969.9969,0,0,0,47.88,24.53Z"/><path d="M70,53.2V51H41a3.0088,3.0088,0,0,1-3-3V45H33a3.0128,3.0128,0,0,1-2.85-3.95l.76-2.27A2.983,2.983,0,0,1,29,36V32a3.016,3.016,0,0,1,1.47-2.58L28.75,27H9a1.0029,1.0029,0,0,0-1,1V59H62.84A10.0364,10.0364,0,0,1,70,53.2Z"/><path d="M6,60V28a3.0088,3.0088,0,0,1,3-3H27.99a2.9568,2.9568,0,0,1,.36-1.41L29.73,21H9a7.0077,7.0077,0,0,0-7,7V65H62V63a10.2,10.2,0,0,1,.2-2H7A1.0029,1.0029,0,0,1,6,60Z"/><path d="M64,63v3h8a3.01,3.01,0,0,1,2-2.82V55H72A8.0106,8.0106,0,0,0,64,63Z"/><path d="M49.65,23.59A2.9568,2.9568,0,0,1,50.01,25H69a3.0088,3.0088,0,0,1,3,3V45h4V28a7.0077,7.0077,0,0,0-7-7H48.27Z"/><path d="M75,47H70V28a1.0029,1.0029,0,0,0-1-1H49.25l-1.72,2.42A3.016,3.016,0,0,1,49,32v4a2.983,2.983,0,0,1-1.91,2.78l.76,2.27A3.0128,3.0128,0,0,1,45,45H40v3a1.0029,1.0029,0,0,0,1,1H74v6h2V48A1,1,0,0,0,75,47Z"/></g></svg>