<?xml version="1.0" encoding="UTF-8"?>
<svg version="1.1" xmlns="http://www.w3.org/2000/svg" width="96" height="96">
<path d="M0 0 C1.98 0 3.96 0 6 0 C7.65 3.96 9.3 7.92 11 12 C12.32 8.04 13.64 4.08 15 0 C16.98 0 18.96 0 21 0 C21.33494072 3.2915052 21.66767936 6.58322932 22 9.875 C22.09539063 10.81214844 22.19078125 11.74929687 22.2890625 12.71484375 C22.37929688 13.61074219 22.46953125 14.50664063 22.5625 15.4296875 C22.64628906 16.25710449 22.73007812 17.08452148 22.81640625 17.93701172 C23 20 23 20 23 22 C21.35 22 19.7 22 18 22 C17.93941406 21.36191406 17.87882812 20.72382812 17.81640625 20.06640625 C17.69072266 18.82697266 17.69072266 18.82697266 17.5625 17.5625 C17.48128906 16.73878906 17.40007813 15.91507813 17.31640625 15.06640625 C17.21069185 13.01337975 17.21069185 13.01337975 16 12 C14.68 15.3 13.36 18.6 12 22 C10.68 22 9.36 22 8 22 C6.68 18.37 5.36 14.74 4 11 C3.67 14.63 3.34 18.26 3 22 C1.68 22 0.36 22 -1 22 C-1.02716824 19.45826023 -1.04691969 16.91681585 -1.0625 14.375 C-1.07087891 13.66214844 -1.07925781 12.94929688 -1.08789062 12.21484375 C-1.10710296 8.02655562 -0.8267327 4.1271538 0 0 Z " fill="#fff" transform="translate(1,53)"/>
<path d="M0 0 C8.44382998 1.0825423 16.47167373 3.1572465 22 10 C23.18954268 12.16404217 24.33213885 14.35427288 25.4375 16.5625 C28.04558917 21.76093624 30.11521788 24.60209021 35.3984375 27.0703125 C37 28 37 28 38 31 C37.01 31.66 36.02 32.32 35 33 C36.32 34.32 37.64 35.64 39 37 C38.505 37.99 38.505 37.99 38 39 C36.67870176 38.265611 35.36816829 37.51183106 34.0625 36.75 C33.33160156 36.33234375 32.60070312 35.9146875 31.84765625 35.484375 C29.68142682 33.74406383 29.36405249 32.70438996 29 30 C30.32 29.67 31.64 29.34 33 29 C32.48050781 28.75507812 31.96101563 28.51015625 31.42578125 28.2578125 C25.77302975 25.22768692 23.718199 22.16399808 21.14453125 16.37109375 C18.76923196 11.45025187 14.80014253 8.40007127 10 6 C7.68308546 5.27833809 5.35151077 4.59940471 3 4 C3.37253906 4.60585938 3.74507812 5.21171875 4.12890625 5.8359375 C7.79148068 12.32278595 8.56474152 16.71852958 7 24 C7.66 24 8.32 24 9 24 C9.33 22.68 9.66 21.36 10 20 C13.69347858 23.32413072 16.43012231 27.29036693 18 32 C15.50638429 30.79618552 13.31856917 29.54571278 11 28 C10.01 28.33 9.02 28.66 8 29 C6.48828125 27.8125 6.48828125 27.8125 5 26 C4.91796875 23.6875 4.91796875 23.6875 5.1875 21 C5.41164392 14.97212947 3.44813042 11.38839128 0.21484375 6.41015625 C-1 4 -1 4 -0.68359375 1.68359375 C-0.45800781 1.12800781 -0.23242188 0.57242187 0 0 Z " fill="#fff" transform="translate(57,16)"/>
<path d="M0 0 C2.4375 1.875 2.4375 1.875 4 5 C4.6892336 10.81050102 4.42831794 15.63827398 2 21 C2.99 21.33 3.98 21.66 5 22 C4.67 22.99 4.34 23.98 4 25 C2.10227809 24.74273307 0.20684323 24.46856661 -1.6875 24.1875 C-2.74324219 24.03667969 -3.79898438 23.88585937 -4.88671875 23.73046875 C-8.19861459 22.95339909 -10.32487495 22.09916396 -13 20 C-15.03822571 15.42797997 -15.16308381 10.93402549 -14.3125 6.0625 C-13.11735306 3.2738238 -12.43007156 1.74965153 -10 0 C-6.16652698 -1.27782434 -3.91272241 -0.96101954 0 0 Z M-8.75 4.5625 C-10.47395014 7.92420278 -10.39321502 10.26445727 -10 14 C-8.63002843 16.87146994 -8.63002843 16.87146994 -7 19 C-4.52733235 18.65555119 -4.52733235 18.65555119 -2 18 C-0.76815234 15.53630468 -0.83267658 13.8105499 -0.8125 11.0625 C-0.79123047 9.74958984 -0.79123047 9.74958984 -0.76953125 8.41015625 C-0.83336651 5.73755665 -0.83336651 5.73755665 -3 3 C-6.89371498 2.55598949 -6.89371498 2.55598949 -8.75 4.5625 Z " fill="#fff" transform="translate(71,53)"/>
<path d="M0 0 C0.33 0.66 0.66 1.32 1 2 C0.67 2.66 0.34 3.32 0 4 C-2.31 4 -4.62 4 -7 4 C-7 4.99 -7 5.98 -7 7 C-5.26560179 8.43493107 -5.26560179 8.43493107 -3.0625 9.625 C0.97468354 11.97468354 0.97468354 11.97468354 2 13 C1.76749436 19.27765237 1.76749436 19.27765237 -1.125 22 C-4.80025691 23.27835023 -7.23972946 22.85138201 -11 22 C-11.66 21.67 -12.32 21.34 -13 21 C-12.505 19.515 -12.505 19.515 -12 18 C-9.03 18 -6.06 18 -3 18 C-4.97340017 13.8643235 -4.97340017 13.8643235 -8.5625 12.125 C-11.51277386 10.56055416 -11.8826183 10.31301787 -13.125 7 C-12.98124125 3.54978992 -12.46292727 2.37496558 -10 0 C-6.26840331 -1.24386556 -3.81984796 -0.77811718 0 0 Z " fill="#fff" transform="translate(54,53)"/>
<path d="M0 0 C1.65 0 3.3 0 5 0 C6.32 2.97 7.64 5.94 9 9 C9.66 6.03 10.32 3.06 11 0 C12.65 0 14.3 0 16 0 C14.33125532 8.89997163 12.53790958 16.46209042 6 23 C2.875 23.125 2.875 23.125 0 23 C0 22.01 0 21.02 0 20 C1.65 19.67 3.3 19.34 5 19 C3.35 12.73 1.7 6.46 0 0 Z " fill="#fff" transform="translate(24,58)"/>
<path d="M0 0 C1.65 0 3.3 0 5 0 C5 6.27 5 12.54 5 19 C7.31 19 9.62 19 12 19 C12 19.99 12 20.98 12 22 C8.04 22 4.08 22 0 22 C0 14.74 0 7.48 0 0 Z " fill="#fff" transform="translate(77,53)"/>
<path d="M0 0 C0.99 0 1.98 0 3 0 C3 0.99 3 1.98 3 3 C2.34 3 1.68 3 1 3 C0.67 2.01 0.34 1.02 0 0 Z " fill="#fff" transform="translate(64,23)"/>
</svg>
